<svg width="70" height="69" viewBox="0 0 70 69" fill="none" xmlns="http://www.w3.org/2000/svg">
<path fill-rule="evenodd" clip-rule="evenodd" d="M66.6254 14.5956C71.6959 23.7965 71.0934 47.1355 64.5403 48.78C61.927 49.4358 56.3599 47.8294 50.6939 44.5047L54.25 69H33.25L40.4789 36.1946C36.4473 31.5873 33.7187 25.941 34.1747 19.6143C35.4885 1.38425 61.555 5.39462 66.6254 14.5956Z" fill="#D4A181"/>
<path fill-rule="evenodd" clip-rule="evenodd" d="M68.608 18.7268C68.3999 17.5342 67.8916 16.2098 67.4814 15.0814C66.9525 13.6268 66.1522 12.3153 65.2714 11.0793C63.6133 8.75223 61.6241 6.65082 59.4279 4.90671C55.4162 1.72094 50.3095 -0.116631 45.2877 0.480122C42.7522 0.781401 40.2909 1.72297 38.196 3.29017C36.3032 4.70615 34.4826 6.79058 32.0317 6.94035C29.365 7.10318 26.9204 4.81166 24.7817 3.3964C22.3703 1.8009 19.8049 0.638308 16.9866 0.186389C12.2651 -0.570436 7.82969 0.982543 4.57576 4.75375C1.11313 8.76689 -1.40393 14.6521 0.869997 19.9695C1.29267 20.9579 1.83644 21.7913 2.61684 22.4819C3.33255 23.1152 4.42565 23.789 4.71584 24.801C5.02406 25.8767 4.10332 27.2643 3.74628 28.2349C3.23478 29.6255 2.81482 31.0852 2.96412 32.5967C3.20942 35.0789 4.81171 37.4485 6.50363 39.08C8.22538 40.7402 10.3445 41.6922 12.6078 42.1311C14.1191 42.4241 15.6636 42.5857 17.1996 42.4757C17.9621 42.4212 18.635 42.2149 19.3737 42.051C20.0921 41.8915 20.4937 42.0772 21.1032 42.4608C23.9347 44.2429 26.9793 44.9324 30.2488 44.6674C33.0082 44.4436 36.1886 43.7926 38.4397 41.952C40.9395 39.9078 40.8897 37.0888 40.3015 34.0771C40.9247 34.3778 42.6489 34.564 41.6186 33.3654C41.2104 32.8907 40.4393 32.6975 39.9156 32.4183C39.3058 32.0932 38.6866 31.6731 38.2131 31.1428C36.3011 29.0016 38.2322 24.6441 40.6353 23.926C44.2058 22.8592 45.0051 27.775 47.5539 29.0466C49.0194 29.7778 50.5524 28.7784 51.6504 27.7581C53.1211 26.3911 54.1235 24.5803 54.9889 22.7375C55.7018 21.2199 56.3652 19.681 57.0917 18.171C57.431 17.4658 58.6056 15.4724 58.0157 14.6751C60.5731 14.1786 63.4214 15.2132 65.6239 16.57C66.5342 17.1309 67.2282 17.7492 67.7138 18.7394C67.8178 18.9516 68.0443 19.5823 68.3286 19.6081C68.858 19.6563 68.6602 19.0265 68.608 18.7268Z" fill="#2C1B18"/>
</svg>
