<svg width="129" height="196" viewBox="0 0 129 196" fill="none" xmlns="http://www.w3.org/2000/svg">
<path fill-rule="evenodd" clip-rule="evenodd" d="M36.8569 0L67.541 103.517L81.9732 181.238H96.4588L81.999 0H36.8569Z" fill="#D4A181"/>
<path fill-rule="evenodd" clip-rule="evenodd" d="M36.8569 0L67.541 103.517L81.9732 181.238H96.4588L81.999 0H36.8569Z" fill="black" fill-opacity="0.1"/>
<path fill-rule="evenodd" clip-rule="evenodd" d="M23.0672 0C25.2083 53.7764 24.3639 83.1074 23.8847 87.9932C23.4055 92.8791 20.6851 125.601 2.14758 182.879H17.2139C41.7638 127.931 50.334 95.2086 53.1497 87.9932C55.9653 80.7779 64.2813 51.4468 76.4223 0H23.0672Z" fill="#D4A181"/>
<path fill-rule="evenodd" clip-rule="evenodd" d="M36.1981 0C44.1795 35.6204 57.9839 92.4795 77.6113 170.577H98.7982C100.363 90.4174 93.7061 37.6586 82.1779 0H36.1981Z" fill="#191847"/>
<path fill-rule="evenodd" clip-rule="evenodd" d="M22.9602 0C25.057 53.7764 19.6229 106.756 2.78992 171.415H25.3951C49.9902 117.287 67.6183 64.5682 79.6659 0H22.9602Z" fill="#393F82"/>
<path fill-rule="evenodd" clip-rule="evenodd" d="M0 193.54L0.831309 180.418C5.69851 181.812 11.7948 181.265 19.1201 178.778C26.9966 184.241 36.9121 187.97 48.8666 189.968C49.7786 190.12 50.3918 190.967 50.2362 191.86C50.2261 191.918 50.2129 191.975 50.1965 192.032L49.0472 196H19.1201H1.66262L0 193.54Z" fill="#191847"/>
<path fill-rule="evenodd" clip-rule="evenodd" d="M78.7397 193.54L79.5711 180.418C84.4383 181.812 90.5345 181.265 97.8599 178.778C105.736 184.241 115.652 187.97 127.606 189.968C128.518 190.12 129.132 190.967 128.976 191.86C128.966 191.918 128.953 191.975 128.936 192.032L127.787 196H97.8599H80.4024L78.7397 193.54Z" fill="#191847"/>
</svg>
