<svg width="179" height="149" viewBox="0 0 179 149" fill="none" xmlns="http://www.w3.org/2000/svg">
<path fill-rule="evenodd" clip-rule="evenodd" d="M160.556 49.4078C164.889 48.5158 175.464 40.6507 177.286 42.2476C179.982 44.6101 177.578 51.8645 174.746 55.4731C169.453 62.2176 165.071 64.5241 154.238 67.5443C148.575 69.1235 142.451 72.2888 135.868 77.0402L135 61.7398L150.247 53.3642C152.386 45.2239 154.943 41.1283 157.918 41.0772C160.204 40.0138 156.224 50.2998 160.556 49.4078Z" fill="#D4A181" stroke="#7C7676"/>
<path d="M61.0958 0C62.5746 20.7778 70.0177 43.6768 76.1262 66.2993C88.5933 69.7007 109.5 65.6908 138.847 54.2703C146.126 70.7395 149.491 82.4808 148.942 89.4941C123.764 103.878 93.9042 104.578 76.1262 105C76.6984 116.532 73.8138 125.969 69.5001 136C60.6334 156.619 21.9569 144.742 4.50001 148.5C-6.43203 109.673 11.3437 93.9281 11.3607 69.0842C11.3793 41.8775 31.3548 0 34.2938 0H61.0958Z" fill="#FC8019"/>
</svg>
