<svg width="46" height="55" viewBox="0 0 46 55" fill="none" xmlns="http://www.w3.org/2000/svg">
<path fill-rule="evenodd" clip-rule="evenodd" d="M7.79665 11.6342C1.99272 18.9683 2.68238 37.5718 10.1834 38.8826C13.1748 39.4054 19.5471 38.1249 26.0328 35.4748L21.9622 55H46L37.7254 28.8508C42.3402 25.1783 45.4635 20.6777 44.9416 15.6346C43.4376 1.10341 13.6006 4.30009 7.79665 11.6342Z" fill="#D4A181"/>
<path fill-rule="evenodd" clip-rule="evenodd" d="M43.5104 9.58734C38.5566 -6.57707 6.4186 3.19676 0.228947 0.585753C-1.12197 6.1953 3.30362 10.7054 18.8859 9.70122C21.7344 11.0768 23.9031 13.3655 26.5043 16.278C27.1276 16.1296 27.7975 16.0491 28.4951 16.0491C31.8141 16.0491 34.5046 17.8731 34.5046 20.1231C34.5046 21.2427 33.8384 22.2569 32.7601 22.9933C34.1329 24.3387 35.6707 25.7436 37.4288 27.1925C43.712 24.5702 48.4773 17.2145 43.6675 9.82362L43.5104 9.58734Z" fill="#2C1B18"/>
</svg>
