<svg width="142" height="214" viewBox="0 0 142 214" fill="none" xmlns="http://www.w3.org/2000/svg">
<path fill-rule="evenodd" clip-rule="evenodd" d="M97.0734 0L67.9875 113.919L46.7661 197.883H31.2881L53.8388 0H97.0734Z" fill="#191847"/>
<path fill-rule="evenodd" clip-rule="evenodd" d="M104.852 0C105.525 58.715 107.819 90.7397 108.525 96.0743C109.231 101.409 119.912 135.345 140.567 197.883H124.533C98.2375 137.888 83.5589 103.952 80.4968 96.0743C77.4347 88.1963 67.9847 56.1715 53.7514 0H104.852Z" fill="#393F82"/>
<path fill-rule="evenodd" clip-rule="evenodd" d="M142 214L141.198 195.197H124.35C116.362 201.464 105.932 206.538 93.0622 210.418V214H123.548L133.977 212.209V214H142Z" fill="#191847"/>
<path fill-rule="evenodd" clip-rule="evenodd" d="M48.9377 214L48.1355 195.197H31.288C23.2994 201.464 12.8701 206.538 -0.000103831 210.418V214H30.4858L40.9151 212.209V214H48.9377Z" fill="#191847"/>
</svg>
