<svg width="237" height="438" viewBox="0 0 237 438" fill="none" xmlns="http://www.w3.org/2000/svg">
<path fill-rule="evenodd" clip-rule="evenodd" d="M147.797 28.6342C141.993 35.9683 142.682 54.5718 150.183 55.8826C153.175 56.4054 159.547 55.1249 166.033 52.4748L161.962 72H186L177.725 45.8508C182.34 42.1783 185.463 37.6777 184.942 32.6346C183.438 18.1034 153.601 21.3001 147.797 28.6342Z" fill="#D4A181"/>
<path fill-rule="evenodd" clip-rule="evenodd" d="M183.51 26.5873C178.557 10.4229 146.419 20.1968 140.229 17.5858C138.878 23.1953 143.304 27.7054 158.886 26.7012C161.734 28.0768 163.903 30.3655 166.504 33.278C167.128 33.1296 167.798 33.0491 168.495 33.0491C171.814 33.0491 174.505 34.8731 174.505 37.1231C174.505 38.2427 173.838 39.2569 172.76 39.9933C174.133 41.3387 175.671 42.7436 177.429 44.1925C183.712 41.5702 188.477 34.2145 183.668 26.8236L183.51 26.5873Z" fill="#2C1B18"/>
<path fill-rule="evenodd" clip-rule="evenodd" d="M178.819 194L152.806 307.919L133.826 391.883H119.983L140.152 194H178.819Z" fill="#191847"/>
<path fill-rule="evenodd" clip-rule="evenodd" d="M185.776 194C186.378 252.715 188.429 284.74 189.061 290.074C189.693 295.409 199.245 329.345 217.718 391.883H203.378C179.86 331.888 166.732 297.952 163.994 290.074C161.255 282.196 152.803 250.172 140.073 194H185.776Z" fill="#393F82"/>
<path fill-rule="evenodd" clip-rule="evenodd" d="M219 408L218.282 389.197H203.215C196.07 395.464 186.742 400.538 175.232 404.418V408H202.497L211.825 406.209V408H219Z" fill="#191847"/>
<path fill-rule="evenodd" clip-rule="evenodd" d="M135.768 408L135.051 389.197H119.983C112.838 395.464 103.511 400.538 92 404.418V408H119.265L128.593 406.209V408H135.768Z" fill="#191847"/>
<path d="M155.294 95.6356C158.275 82.4436 156.802 73.9248 169 69.2796C172.916 67.7884 184.571 69.2796 184.571 69.2796L190.124 90.5L190.124 100.989C185.609 119.265 189.838 123.467 192.089 142.972C194.341 162.477 184.571 196.509 184.571 196.509C184.571 196.509 147.074 212.914 140 193.5L121.885 143.789L105.462 145.684L57.0415 160.698L45.0001 136C45.0001 136 77.2731 114.607 105.462 109C124.405 105.232 152.5 108 155.294 95.6356Z" fill="#FC8019"/>
</svg>
